<?xml version="1.0" standalone="no"?>
<!DOCTYPE svg PUBLIC "-//W3C//DTD SVG 20010904//EN"
 "http://www.w3.org/TR/2001/REC-SVG-20010904/DTD/svg10.dtd">
<svg version="1.0" xmlns="http://www.w3.org/2000/svg"
 width="271.000000pt" height="272.000000pt" viewBox="0 0 271.000000 272.000000"
 preserveAspectRatio="xMidYMid meet">
<metadata>
Created by potrace 1.16, written by Peter Selinger 2001-2019
</metadata>
<g transform="translate(0.000000,272.000000) scale(0.100000,-0.100000)"
fill="#938FC2" stroke="none">
<path d="M1300 2672 c-62 -29 -90 -73 -90 -138 0 -42 5 -59 26 -84 66 -77 154
-80 223 -6 19 20 26 40 29 85 4 58 3 61 -35 101 -34 37 -46 43 -89 46 -27 2
-56 0 -64 -4z"/>
<path d="M813 2572 c-30 -73 -28 -100 17 -190 29 -58 61 -102 107 -147 35 -36
69 -65 74 -65 9 0 12 49 9 149 -2 57 -39 186 -63 221 -17 24 -56 47 -100 61
-26 7 -30 5 -44 -29z"/>
<path d="M1799 2587 c-51 -26 -82 -79 -105 -179 -17 -73 -20 -238 -4 -238 13
0 50 47 43 55 -5 4 -2 5 5 1 17 -10 52 30 45 52 -4 13 -3 14 5 4 7 -11 14 -8
31 14 30 38 81 148 88 189 6 38 -30 125 -51 125 -7 0 -33 -10 -57 -23z"/>
<path d="M1097 2410 c5 -19 8 -95 7 -167 l0 -133 63 -21 c36 -12 67 -18 70
-15 4 3 -1 42 -10 86 -16 83 -69 204 -112 255 l-25 30 7 -35z"/>
<path d="M1578 2407 c-55 -70 -100 -188 -111 -294 -4 -36 -2 -43 12 -43 9 0
21 4 27 8 5 5 28 14 51 21 l42 11 -6 123 c-3 76 -1 137 5 161 7 22 10 41 9 42
-2 2 -14 -12 -29 -29z"/>
<path d="M2120 2322 c-96 -48 -106 -181 -17 -246 38 -28 122 -28 159 -1 87 65
81 198 -12 245 -48 25 -84 25 -130 2z"/>
<path d="M453 2316 c-96 -44 -97 -202 -2 -252 40 -20 98 -20 138 1 86 44 94
181 14 239 -34 25 -109 31 -150 12z"/>
<path d="M770 2293 c0 -78 70 -253 128 -322 l29 -34 26 44 c43 74 44 93 5 120
-56 40 -98 81 -144 142 -24 33 -44 55 -44 50z"/>
<path d="M1903 2269 c-26 -41 -115 -131 -158 -160 -19 -13 -35 -28 -35 -33 0
-4 14 -38 31 -74 l32 -65 28 34 c36 43 83 130 103 191 17 50 32 138 23 138 -3
0 -14 -14 -24 -31z"/>
<path d="M1061 2008 c-6 -17 -24 -52 -41 -79 l-30 -49 38 -24 c47 -29 122 -66
136 -66 16 0 31 28 49 90 31 114 32 107 -16 115 -23 4 -61 15 -84 25 l-42 18
-10 -30z"/>
<path d="M1595 2024 c-16 -8 -51 -20 -77 -25 -57 -12 -58 -18 -27 -117 28 -88
38 -99 77 -81 17 7 28 17 26 21 -3 4 2 5 10 2 14 -5 52 14 88 44 16 13 15 19
-17 80 -19 36 -35 71 -35 79 0 17 -8 16 -45 -3z"/>
<path d="M1348 1972 c-24 -3 -28 -9 -38 -60 -7 -31 -20 -77 -31 -101 -10 -24
-19 -45 -19 -46 0 -5 131 -5 154 1 20 5 25 11 20 23 -7 16 -19 55 -45 141 -13
40 -17 45 -41 42z"/>
<path d="M2250 1941 c-8 -5 -35 -11 -59 -15 -79 -12 -246 -106 -246 -138 0 -6
20 -21 45 -33 78 -40 82 -40 112 8 33 52 86 103 157 151 43 29 49 36 30 36
-13 0 -31 -4 -39 -9z"/>
<path d="M416 1932 c5 -5 29 -24 54 -43 87 -66 88 -67 161 -171 4 -7 79 26
127 56 9 5 -2 19 -37 47 -62 49 -143 85 -233 104 -81 17 -85 18 -72 7z"/>
<path d="M2432 1911 c-70 -24 -171 -92 -226 -153 -56 -61 -51 -68 49 -68 79 0
173 20 247 52 42 18 53 29 74 71 30 64 30 72 -3 86 -67 27 -90 29 -141 12z"/>
<path d="M140 1894 c-19 -8 -36 -16 -38 -19 -2 -2 8 -30 23 -62 25 -57 28 -60
93 -85 95 -37 175 -51 254 -45 38 3 72 7 74 10 2 2 -17 26 -43 54 -130 134
-265 189 -363 147z"/>
<path d="M1740 1802 c-14 -9 -27 -19 -30 -22 -6 -7 -110 -57 -129 -62 -10 -3
-9 -7 5 -18 14 -12 16 -12 9 -1 -5 10 -4 12 4 7 6 -4 9 -12 5 -17 -5 -9 35
-53 83 -91 21 -16 22 -16 33 18 12 34 46 99 75 140 14 19 13 22 -7 41 -22 20
-24 20 -48 5z"/>
<path d="M915 1790 c-17 -19 -17 -21 8 -57 14 -21 38 -64 52 -95 l26 -58 40
32 c37 30 89 90 89 102 0 3 -5 6 -12 6 -16 0 -95 39 -137 67 -41 28 -43 28
-66 3z"/>
<path d="M800 1700 c-14 -10 -47 -29 -73 -41 -35 -17 -46 -27 -41 -38 3 -9 15
-45 26 -81 11 -36 21 -66 22 -67 4 -4 144 37 169 50 l27 14 -40 80 c-50 100
-58 107 -90 83z"/>
<path d="M1841 1674 c-17 -26 -31 -55 -31 -65 0 -9 -4 -19 -9 -21 -5 -1 -13
-15 -16 -30 -6 -22 -4 -28 9 -28 9 0 27 -6 39 -14 19 -13 137 -40 142 -33 3 3
53 162 52 162 -1 0 -33 16 -71 35 -38 19 -73 36 -77 38 -3 2 -21 -18 -38 -44z"/>
<path d="M2375 1613 c-44 -13 -159 -13 -249 -1 -15 2 -23 -6 -30 -32 -6 -19
-14 -39 -17 -45 -3 -5 -9 -22 -12 -36 -7 -29 -13 -29 108 -8 72 13 208 77 201
95 -3 8 1 11 8 8 7 -3 24 4 37 15 28 23 23 24 -46 4z"/>
<path d="M280 1602 c104 -83 360 -167 360 -118 0 26 -43 126 -54 126 -6 0 -41
-5 -79 -10 -62 -9 -173 -1 -232 16 -16 5 -15 3 5 -14z"/>
<path d="M2475 1496 c-17 -7 -43 -28 -58 -45 -39 -46 -39 -126 0 -172 49 -58
116 -73 181 -40 47 24 75 72 74 127 0 57 -28 100 -77 124 -48 23 -78 25 -120
6z"/>
<path d="M110 1478 c-36 -18 -49 -32 -64 -70 -17 -41 -18 -52 -7 -89 33 -110
167 -142 246 -59 27 28 30 38 30 95 0 54 -4 68 -25 90 -28 31 -78 55 -113 55
-12 0 -43 -10 -67 -22z"/>
<path d="M910 1435 c-14 -8 -58 -22 -97 -31 -73 -18 -73 -18 -73 -51 0 -19 4
-32 8 -29 7 4 144 -32 184 -49 13 -5 18 1 24 29 3 20 4 60 0 89 -3 28 -6 53
-6 55 0 5 -17 0 -40 -13z"/>
<path d="M1756 1434 c-9 -24 -7 -137 3 -153 7 -11 13 -12 23 -4 15 12 148 53
172 53 11 0 16 10 16 34 0 33 -1 33 -53 40 -29 3 -67 12 -83 20 -52 25 -71 28
-78 10z"/>
<path d="M555 1233 c-83 -14 -228 -78 -262 -115 -17 -19 -16 -19 37 -11 60 9
207 8 244 -1 19 -5 25 1 45 46 12 28 21 61 19 73 -3 21 -3 21 -83 8z"/>
<path d="M1925 1238 c-27 -5 -64 -15 -82 -23 -17 -8 -36 -15 -41 -15 -23 0
-22 -22 4 -77 14 -32 29 -60 33 -63 3 -3 12 -17 20 -32 l14 -28 76 42 c42 23
78 43 80 44 2 2 -3 18 -12 36 -8 18 -18 52 -22 75 -4 24 -10 44 -13 46 -4 2
-29 0 -57 -5z"/>
<path d="M2070 1223 c29 -97 36 -108 66 -106 84 7 243 3 274 -6 l35 -10 -35
29 c-57 48 -172 99 -247 110 -103 15 -103 15 -93 -17z"/>
<path d="M713 1178 c-39 -119 -38 -112 -13 -105 12 3 19 3 16 0 -3 -4 22 -21
55 -40 58 -30 63 -31 75 -15 26 33 71 117 77 144 7 26 5 27 -75 52 -44 14 -89
26 -98 26 -12 0 -23 -18 -37 -62z"/>
<path d="M1640 1081 c-33 -33 -60 -62 -60 -66 0 -3 24 -17 53 -30 28 -12 68
-34 87 -47 61 -42 64 -43 57 -24 -4 9 -3 15 2 12 5 -3 14 1 21 9 10 12 8 22
-13 53 -33 49 -67 114 -67 129 0 30 -24 19 -80 -36z"/>
<path d="M990 1116 c0 -16 -56 -124 -78 -149 -14 -16 -13 -19 8 -42 l22 -24
29 20 c16 10 42 28 58 39 16 10 41 22 55 26 14 3 26 10 26 16 0 5 5 6 10 3 6
-3 10 -1 10 6 0 7 -24 36 -54 66 -53 52 -86 67 -86 39z"/>
<path d="M2176 1032 c-17 -7 -11 -17 50 -76 52 -51 91 -79 159 -112 50 -24 97
-44 105 -44 8 0 39 11 67 25 51 23 53 25 43 52 -32 86 -41 94 -157 134 -62 22
-233 36 -267 21z"/>
<path d="M315 1016 c-27 -7 -76 -24 -107 -38 -53 -24 -60 -32 -83 -84 -14 -31
-24 -58 -23 -59 2 -1 29 -12 61 -24 54 -20 59 -20 105 -5 61 21 94 42 86 56
-5 8 -1 9 11 5 21 -9 70 25 138 96 35 37 44 53 35 59 -19 12 -166 8 -223 -6z"/>
<path d="M2007 978 c-37 -17 -67 -35 -67 -39 0 -10 87 -72 137 -98 39 -19 189
-61 222 -61 8 0 -4 12 -27 28 -55 37 -131 108 -168 159 l-30 42 -67 -31z"/>
<path d="M611 968 c-21 -34 -113 -128 -166 -168 l-30 -23 60 7 c32 4 62 10 65
14 3 4 14 9 25 10 50 9 202 101 204 124 1 8 -112 68 -128 68 -5 0 -18 -15 -30
-32z"/>
<path d="M1267 943 c12 -33 30 -63 34 -59 2 3 4 -8 5 -22 0 -15 4 -43 8 -62 5
-19 9 -41 9 -47 0 -8 14 -13 33 -13 31 0 33 2 40 48 4 26 17 75 30 110 l24 62
-95 0 c-86 0 -94 -2 -88 -17z"/>
<path d="M1521 918 c-10 -15 -24 -64 -48 -165 -4 -19 -1 -23 18 -23 23 -1 113
-29 135 -42 6 -4 22 18 39 55 15 34 34 68 42 75 11 11 11 17 2 29 -14 17 -75
50 -135 74 -39 15 -42 15 -53 -3z"/>
<path d="M1104 904 c-27 -14 -52 -30 -55 -36 -3 -5 -10 -10 -15 -10 -5 0 -16
-5 -25 -12 -14 -9 -14 -13 -3 -23 7 -7 14 -9 17 -5 2 4 2 1 0 -6 -2 -8 4 -26
12 -40 8 -15 19 -39 25 -54 11 -33 23 -34 92 -8 29 11 61 20 72 20 16 0 17 5
11 48 -4 26 -10 52 -14 57 -4 6 -13 29 -20 53 -14 50 -28 53 -97 16z"/>
<path d="M1776 772 c-4 -7 -4 -17 0 -24 4 -7 3 -8 -5 -4 -12 8 -51 -64 -51
-94 0 -8 23 -30 51 -49 27 -19 68 -57 92 -85 23 -28 44 -53 48 -56 3 -3 9 -14
12 -24 14 -38 18 -7 7 55 -12 66 -66 191 -101 231 -10 13 -25 32 -33 42 -9 13
-15 15 -20 8z"/>
<path d="M894 733 c-57 -71 -119 -232 -112 -290 l3 -28 19 34 c22 40 149 168
177 176 10 4 19 12 19 18 0 19 -54 120 -66 124 -6 2 -24 -14 -40 -34z"/>
<path d="M456 647 c-105 -60 -96 -207 16 -251 59 -24 114 -13 155 30 115 122
-26 305 -171 221z"/>
<path d="M2095 637 c-35 -31 -39 -38 -42 -93 -5 -71 16 -112 70 -137 47 -23
89 -21 138 4 87 44 94 175 13 238 -20 16 -41 21 -84 21 -50 0 -61 -4 -95 -33z"/>
<path d="M1203 640 c-18 -4 -48 -15 -68 -24 -31 -15 -34 -20 -28 -44 10 -36
10 -195 0 -252 -7 -41 -7 -43 7 -25 9 11 19 25 23 30 23 28 54 86 74 140 21
55 42 186 30 184 -4 -1 -20 -4 -38 -9z"/>
<path d="M1463 643 c3 -4 8 -25 11 -46 18 -112 66 -228 122 -292 25 -29 25
-29 17 -5 -4 14 -8 89 -8 166 l0 141 -35 15 c-43 19 -114 32 -107 21z"/>
<path d="M1013 548 c-7 -8 -9 -19 -5 -23 4 -5 1 -5 -6 -1 -16 10 -54 -22 -45
-37 3 -6 1 -7 -5 -3 -26 16 -152 -200 -152 -258 1 -42 35 -116 55 -116 8 0 15
4 15 9 0 5 16 12 35 15 46 9 70 43 101 142 21 69 24 98 22 185 -2 83 -5 99
-15 87z"/>
<path d="M1687 508 c-11 -92 9 -207 51 -297 21 -47 31 -56 79 -77 29 -13 55
-24 57 -24 8 0 46 101 46 122 0 75 -165 315 -201 293 -7 -5 -10 -4 -6 2 4 6 1
16 -7 22 -11 9 -14 1 -19 -41z"/>
<path d="M1305 316 c-54 -23 -85 -70 -85 -128 0 -62 23 -104 72 -129 48 -24
81 -24 134 1 111 54 94 227 -25 260 -46 13 -59 12 -96 -4z"/>
</g>
</svg>
